<svg xmlns="http://www.w3.org/2000/svg" version="1.1" xmlns:xlink="http://www.w3.org/1999/xlink" xmlns:svgjs="http://svgjs.dev/svgjs" width="1440" height="560" preserveAspectRatio="none" viewBox="0 0 1440 560"><g mask="url(&quot;#SvgjsMask1002&quot;)" fill="none"><rect width="1440" height="560" x="0" y="0" fill="rgba(0, 0, 0, 1)"></rect><path d="M423.68 614.27C539.44 610.82 636.02 437.32 851.71 437.11 1067.39 436.9 1065.72 507.11 1279.73 507.11 1493.75 507.11 1599.33 437.34 1707.76 437.11" stroke="rgba(200, 245, 66, 1)" stroke-width="2"></path><path d="M513.84 608.61C672.41 603.15 779.02 365.02 1095.4 354.55 1411.79 344.08 1519.15 113.16 1676.97 108.15" stroke="rgba(200, 245, 66, 1)" stroke-width="2"></path><path d="M586.89 593.62C744.82 586.53 843.94 330.31 1156.26 318.46 1468.57 306.61 1571.15 82.54 1725.62 77.66" stroke="rgba(200, 245, 66, 1)" stroke-width="2"></path><path d="M174.83 621.51C330.56 587.93 387.01 187.53 634.96 180.64 882.91 173.75 865.03 250.64 1095.09 250.64 1325.16 250.64 1438.86 180.84 1555.22 180.64" stroke="rgba(200, 245, 66, 1)" stroke-width="2"></path><path d="M343.99 602.84C544.64 572.33 652.36 94.28 975.5 92.7 1298.65 91.12 1438.59 324.12 1607.02 327.9" stroke="rgba(200, 245, 66, 1)" stroke-width="2"></path></g><defs><mask id="SvgjsMask1002"><rect width="1440" height="560" fill="#ffffff"></rect></mask></defs></svg>